Coordinates
version=1
nRows=10
nColumns=46
inDegrees=yes

Units are S.I. units (second, meters, Newtons, ...)
Angles are in degrees.

endheader
time	pelvis_tilt	pelvis_list	pelvis_rotation	pelvis_tx	pelvis_ty	pelvis_tz	bb_angle	bb_tx	bb_ty	bb_tz	hip_flexion_r	hip_adduction_r	hip_rotation_r	knee_angle_r	knee_angle_r_beta	ankle_angle_r	subtalar_angle_r	mtp_angle_r	crank_angle_r	hip_flexion_l	hip_adduction_l	hip_rotation_l	knee_angle_l	knee_angle_l_beta	ankle_angle_l	subtalar_angle_l	mtp_angle_l	crank_angle_l	lumbar_extension	lumbar_bending	lumbar_rotation	arm_flex_r	arm_add_r	arm_rot_r	elbow_flex_r	pro_sup_r	wrist_flex_r	wrist_dev_r	arm_flex_l	arm_add_l	arm_rot_l	elbow_flex_l	pro_sup_l	wrist_flex_l	wrist_dev_l
      2.50000000	    -15.14904210	     -4.75774621	     -8.11171930	      0.04883724	      1.11258761	     -0.27447996	      0.00000000	      0.50000000	      0.00000000	      0.25000000	     76.11459001	      8.56000891	      4.39225330	     80.34696320	      1.40231905	     18.07086431	    -11.21655068	      0.00000000	      0.00000000	     52.82276666	    -10.60518905	      4.48222990	     69.57120287	      1.21424655	    -16.78585789	    -16.20060834	      0.00000000	      0.00000000	    -61.39384990	      3.82382412	      8.62115258	     89.74491094	    -15.08495822	     30.55017998	     65.89795101	     33.55568341	      0.00000000	      0.00000000	     82.61877471	    -32.82108960	     26.84228441	     62.54049782	     45.68786006	      0.00000000	      0.00000000
      2.50500000	    -15.39562461	     -4.64008642	     -7.78462084	      0.04882709	      1.11259213	     -0.27470701	      0.00000000	      0.50000000	      0.00000000	      0.25000000	     75.65177402	      8.21036488	      4.51529794	     78.63194397	      1.37238632	     17.03545177	    -11.54904100	      0.00000000	      0.00000000	     53.59090850	    -10.30119160	      4.62711763	     70.95300316	      1.23836352	    -16.04834516	    -16.18719164	      0.00000000	      0.00000000	    -61.20586424	      4.09466937	      8.18847064	     89.75273198	    -15.01597865	     30.86139786	     65.83768330	     33.76020712	      0.00000000	      0.00000000	     82.68860077	    -33.42014158	     27.38822162	     62.68222556	     45.74680110	      0.00000000	      0.00000000
      2.51000000	    -15.54108848	     -4.51199750	     -7.45761418	      0.04892214	      1.11285153	     -0.27484509	      0.00000000	      0.50000000	      0.00000000	      0.25000000	     75.01291418	      7.85507988	      4.65256433	     76.86705669	      1.34158323	     16.14065595	    -11.59591715	      0.00000000	      0.00000000	     54.23922853	    -10.02038197	      4.69702306	     72.30391022	      1.26194130	    -15.36287347	    -16.16502251	      0.00000000	      0.00000000	    -61.19512261	      4.31232814	      7.83529451	     89.75478777	    -14.90814779	     30.62096671	     66.10378931	     33.78873512	      0.00000000	      0.00000000	     82.82688396	    -33.89268804	     27.77693538	     62.94290063	     45.82807800	      0.00000000	      0.00000000
      2.51500000	    -15.62846493	     -4.37300135	     -7.11722181	      0.04905281	      1.11322667	     -0.27496211	      0.00000000	      0.50000000	      0.00000000	      0.25000000	     74.27252254	      7.50114213	      4.85682621	     75.08991035	      1.31056617	     15.18761381	    -11.65600443	      0.00000000	      0.00000000	     54.84174950	     -9.70922081	      4.80011538	     73.68093665	      1.28597494	    -14.61509683	    -16.09968715	      0.00000000	      0.00000000	    -61.25147098	      4.51012767	      7.54127246	     89.75303452	    -14.86136016	     30.31743167	     66.53645630	     33.46905108	      0.00000000	      0.00000000	     83.02740586	    -34.36236569	     28.33207943	     63.22810162	     45.98534122	      0.00000000	      0.00000000
      2.52000000	    -15.75046175	     -4.30676656	     -6.78888128	      0.04926030	      1.11371701	     -0.27499030	      0.00000000	      0.50000000	      0.00000000	      0.25000000	     73.46583615	      7.18997100	      4.96913228	     73.18390520	      1.27730011	     14.26785934	    -11.60911791	      0.00000000	      0.00000000	     55.51923843	     -9.47121449	      4.96484378	     75.07416194	      1.31029131	    -13.99230191	    -16.07275826	      0.00000000	      0.00000000	    -61.38488751	      4.73827692	      7.42965817	     89.74529200	    -14.84457723	     29.49117870	     67.14560469	     34.46826784	      0.00000000	      0.00000000	     82.56824729	    -33.95104832	     26.38867800	     64.08700645	     45.83370173	      0.00000000	      0.00000000
      2.52500000	    -15.84803994	     -3.96767973	     -6.39846318	      0.04951367	      1.11401637	     -0.27512722	      0.00000000	      0.50000000	      0.00000000	      0.25000000	     72.68807869	      6.70739171	      5.32154986	     71.41285523	      1.24638945	     13.29473927	    -11.86645130	      0.00000000	      0.00000000	     56.16589682	     -8.95044183	      5.02733797	     76.45514607	      1.33439403	    -13.20918221	    -15.78969143	      0.00000000	      0.00000000	    -61.23472811	      4.84205012	      6.73432640	     89.75374577	    -14.91640649	     30.24334073	     66.92968714	     34.08546953	      0.00000000	      0.00000000	     83.03106044	    -34.88845875	     28.37615808	     63.94949355	     46.03687809	      0.00000000	      0.00000000
      2.53000000	    -15.98831416	     -3.72275130	     -6.07210589	      0.04982981	      1.11433810	     -0.27523501	      0.00000000	      0.50000000	      0.00000000	      0.25000000	     71.88644717	      6.29718434	      5.60367515	     69.56567990	      1.21415016	     12.37148445	    -11.80176576	      0.00000000	      0.00000000	     56.90949433	     -8.55186551	      5.14461856	     77.87084038	      1.35910256	    -12.52931270	    -15.45022080	      0.00000000	      0.00000000	    -61.15242518	      4.97448260	      6.30085473	     89.75456872	    -14.97066033	     30.45901795	     67.01402452	     34.22859334	      0.00000000	      0.00000000	     82.89321838	    -35.01926477	     28.08082918	     64.31095254	     46.04719885	      0.00000000	      0.00000000
      2.53500000	    -16.08245425	     -3.49634904	     -5.70580294	      0.05016624	      1.11471414	     -0.27528076	      0.00000000	      0.50000000	      0.00000000	      0.25000000	     71.00580328	      5.86204753	      5.83542630	     67.70127542	      1.18161016	     11.29964727	    -11.97276191	      0.00000000	      0.00000000	     57.66549155	     -8.13990183	      5.30583213	     79.30949453	      1.38421181	    -12.00600569	    -15.18460672	      0.00000000	      0.00000000	    -61.11842363	      5.12376534	      5.88597158	     89.75375750	    -15.02919102	     30.53252888	     67.14087789	     34.51269028	      0.00000000	      0.00000000	     82.75145561	    -35.07071774	     27.73040914	     64.68277994	     46.05210507	      0.00000000	      0.00000000
      2.54000000	    -16.11414411	     -3.22477539	     -5.33340985	      0.05048639	      1.11509064	     -0.27537125	      0.00000000	      0.50000000	      0.00000000	      0.25000000	     70.04792904	      5.39596310	      6.11508401	     65.81920846	      1.14876190	     10.37145625	    -11.89601487	      0.00000000	      0.00000000	     58.39144535	     -7.67589142	      5.45721406	     80.75879931	      1.40950695	    -11.44948997	    -14.75516086	      0.00000000	      0.00000000	    -61.14510554	      5.19205090	      5.46562701	     89.75010834	    -15.17873833	     30.50012497	     67.50853002	     34.09104024	      0.00000000	      0.00000000	     83.22141743	    -35.54208459	     28.97319833	     64.82177564	     46.22782755	      0.00000000	      0.00000000
      2.54500000	    -16.14304977	     -2.77769542	     -5.02063732	      0.05087572	      1.11537043	     -0.27545536	      0.00000000	      0.50000000	      0.00000000	      0.25000000	     69.09871013	      4.90675695	      6.61146612	     64.01968168	      1.11735423	      9.63450962	    -11.58920618	      0.00000000	      0.00000000	     59.13158933	     -7.12224742	      5.41946255	     82.19795833	      1.43462501	    -11.20849900	    -14.73020087	      0.00000000	      0.00000000	    -61.08729652	      5.11952628	      4.96035453	     89.74506183	    -15.30139366	     30.46501488	     67.58395461	     34.05524629	      0.00000000	      0.00000000	     83.22936981	    -35.41209956	     29.03748728	     64.86424204	     46.24609767	      0.00000000	      0.00000000
